<?xml version="1.0" standalone="no"?>
<!DOCTYPE svg PUBLIC "-//W3C//DTD SVG 20010904//EN"
 "http://www.w3.org/TR/2001/REC-SVG-20010904/DTD/svg10.dtd">
<svg version="1.0" xmlns="http://www.w3.org/2000/svg"
 width="200.000000pt" height="200.000000pt" viewBox="0 0 200.000000 200.000000"
 preserveAspectRatio="xMidYMid meet">

<g transform="translate(0.000000,200.000000) scale(0.100000,-0.100000)"
fill="#000000" stroke="none">
<path d="M220 1413 c0 -50 17 -124 42 -183 14 -33 14 -37 -10 -79 l-25 -43 22
7 c20 6 22 4 16 -14 -5 -17 -2 -21 14 -21 15 0 21 -6 21 -21 0 -16 4 -19 20
-14 16 5 20 2 20 -14 0 -12 7 -21 15 -21 8 0 12 -6 10 -12 -3 -8 12 -21 34
-31 29 -13 45 -30 60 -63 25 -53 79 -83 115 -65 20 9 20 10 2 10 -20 1 -20 1
0 16 14 11 16 15 4 15 -12 1 -12 3 3 14 27 21 21 46 -13 53 -29 5 -30 7 -30
68 0 111 -43 205 -95 205 -30 0 -35 8 -24 38 9 23 4 31 -60 94 -65 63 -67 67
-33 52 21 -8 60 -30 87 -48 36 -23 68 -35 110 -41 33 -4 82 -15 108 -25 l49
-19 66 54 c37 30 70 55 75 55 14 0 7 -35 -18 -88 -22 -48 -23 -51 -5 -42 24
13 70 90 80 135 l8 35 -38 0 c-24 0 -67 -15 -121 -42 -82 -41 -86 -42 -173
-39 -81 2 -94 6 -133 32 -53 37 -162 89 -185 89 -15 0 -18 -9 -18 -47z m230
-283 c0 -11 -4 -20 -10 -20 -5 0 -10 9 -10 20 0 11 5 20 10 20 6 0 10 -9 10
-20z m30 -20 c0 -5 -5 -10 -11 -10 -5 0 -7 5 -4 10 3 6 8 10 11 10 2 0 4 -4 4
-10z"/>
<path d="M626 1154 c-18 -18 -23 -130 -6 -119 6 3 10 24 10 46 0 24 4 38 10
34 6 -3 13 2 17 12 4 10 14 23 22 30 14 11 12 12 -11 13 -15 0 -34 -7 -42 -16z"/>
<path d="M1685 1126 c-48 -21 -81 -68 -100 -143 -49 -192 -64 -223 -120 -250
-31 -15 -36 -21 -33 -47 4 -39 20 -42 113 -26 155 27 192 46 237 117 20 33 24
54 28 165 l5 127 34 35 35 36 -85 0 c-47 -1 -97 -7 -114 -14z m120 -42 c-14
-20 -25 -43 -25 -50 0 -16 -39 -64 -52 -64 -4 0 -8 6 -8 14 0 8 -9 18 -20 21
-11 3 -20 11 -20 17 0 6 -9 8 -20 5 -17 -4 -19 -1 -14 21 4 15 10 31 14 35 14
16 85 36 127 37 l42 0 -24 -36z"/>
<path d="M437 543 c189 -2 497 -2 685 0 189 1 35 2 -342 2 -377 0 -531 -1
-343 -2z"/>
</g>
</svg>
